<?xml version="1.0" encoding="UTF-8"?><svg id="Capa_1" xmlns="http://www.w3.org/2000/svg" viewBox="0 0 397.69 766.01"><defs><style>.cls-1{fill:#ff1d25;}</style></defs><path class="cls-1" d="M88.04,633.13c-13.24-4.19-26.28-8.69-39.05-14.16,8.64,33.87,19.73,66.11,36.58,96.82-6.99-7.25-10.38-11.17-16.93-19.56C3.07,612.03-3.98,488.08,1.47,385.91,7.73,268.7,36.25,149.95,91.58,46.02c8-7.26,12.13-10.54,20.58-16.33-37.38,112.36-34.72,239.74-28.03,356.49,7.12,124.25,24.85,249.5,57.52,369.72-8.13-3.47-12.13-5.57-19.94-10.43-13.67-36.69-24.29-74.35-33.67-112.34Zm-25.61-138.57c-12.6-98.55-16.4-198.23-5.73-297.14-20.51,96.44-29.64,194.6-25.25,293.16,10.3,1.49,20.64,2.82,30.98,3.98Z"/><path class="cls-1" d="M154.45,602.16c2.54,53.9,5.95,107.73,11.49,161.42-8.23-1.71-12.29-2.92-20.26-6.03-10.3-52.41-16.66-105.33-21.41-158.5,10,1.37,20.11,2.42,30.18,3.11Z"/><path class="cls-1" d="M199.21,645.97c12.38-.31,24.75-1.27,37.03-2.85-3.23,39.51-7.02,79.02-12.89,118.24-15.13,4.56-31.35,5.56-47,3.91-15.12-253.46-15.33-510.94,0-764.39,8.06-.94,12.22-1.07,20.35-.62,6.09,215.1,5.65,430.57,2.5,645.72Z"/><path class="cls-1" d="M277.25,595.73c-6.33,52.29-14.45,104.56-28.53,155.39-7.76,4.06-11.72,5.77-19.77,8.49,8.96-52.84,14.48-106.07,18.61-159.5,9.92-1.12,19.87-2.59,29.69-4.38Z"/><path class="cls-1" d="M330.97,505.02c-8.45,77.21-22.25,156.53-54.63,227.74-7.02,5.71-10.62,8.29-17.96,12.84,38.32-115.27,47.24-241.82,47.24-362.54s-8.92-247.27-47.24-362.54c10.29,6.4,19.87,13.92,28.68,22.23,17.48,17.92,30.98,40.7,43.81,61.8,28.19,46.36,47.9,97.77,58.23,150.62,7.78,39.78,10.7,81.6,7,122.37-2.75,30.33-7.66,61.68-19.32,89.4-5.18,12.31-12.56,31.32-27.56,35.27-7.23,1.18-10.89,1.75-18.25,2.8Zm29.89-256.41c-3.7-23.71-9.5-81.63-35.03-96.33-5.14-1.95-7.73-2.88-12.96-4.65,14.11,65.24,21.25,131.28,23.65,197.94,6.3,.26,9.43,.4,15.64,.68,25.73-5.78,10.95-83.24,8.71-97.64Z"/></svg>